<?xml version="1.0" encoding="UTF-8" standalone="no"?>
<svg
   xmlns:dc="http://purl.org/dc/elements/1.1/"
   xmlns:cc="http://creativecommons.org/ns#"
   xmlns:rdf="http://www.w3.org/1999/02/22-rdf-syntax-ns#"
   xmlns:svg="http://www.w3.org/2000/svg"
   xmlns="http://www.w3.org/2000/svg"
   xmlns:sodipodi="http://sodipodi.sourceforge.net/DTD/sodipodi-0.dtd"
   xmlns:inkscape="http://www.inkscape.org/namespaces/inkscape"
   height="16"
   viewBox="0 0 16 16"
   width="16"
   version="1.1"
   id="svg4"
   sodipodi:docname="Path3D.svg"
   inkscape:version="0.92.4 (5da689c313, 2019-01-14)">
  <metadata
     id="metadata10">
    <rdf:RDF>
      <cc:Work
         rdf:about="">
        <dc:format>image/svg+xml</dc:format>
        <dc:type
           rdf:resource="http://purl.org/dc/dcmitype/StillImage" />
      </cc:Work>
    </rdf:RDF>
  </metadata>
  <defs
     id="defs8" />
  <sodipodi:namedview
     pagecolor="#ffffff"
     bordercolor="#666666"
     borderopacity="1"
     objecttolerance="10"
     gridtolerance="10"
     guidetolerance="10"
     inkscape:pageopacity="0"
     inkscape:pageshadow="2"
     inkscape:window-width="1360"
     inkscape:window-height="713"
     id="namedview6"
     showgrid="false"
     inkscape:zoom="20.85965"
     inkscape:cx="5.8446972"
     inkscape:cy="7.0930499"
     inkscape:window-x="0"
     inkscape:window-y="0"
     inkscape:window-maximized="1"
     inkscape:current-layer="g817" />
  <g
     id="g817">
    <path
       id="path2"
       d="m 13,1 a 2,2 0 0 0 -2,2 2,2 0 0 0 0.84961,1.6328 c -0.19239,0.88508 -0.55317,1.3394 -0.98633,1.6426 -0.64426,0.451 -1.7129,0.60547 -2.9629,0.73047 -1.25,0.125 -2.6814,0.22053 -3.9121,1.082 -0.89278,0.62493 -1.5321,1.6522 -1.8184,3.0957 a 2,2 0 0 0 -1.1699,1.8164 2,2 0 0 0 2,2 2,2 0 0 0 2,-2 2,2 0 0 0 -0.84961,-1.6328 C 4.34272,10.48221 4.70343,10.02987 5.1367,9.72657 5.78096,9.27557 6.8496,9.1211 8.0996,8.9961 9.3496,8.8711 10.781,8.77557 12.0117,7.9141 12.9044,7.28922 13.5438,6.2603 13.8301,4.8164 A 2,2 0 0 0 15,3 2,2 0 0 0 13,1 Z"
       inkscape:connector-curvature="0"
       style="fill:#fc9c9c;fill-opacity:0.99607999" />
    <g
       aria-label="C"
       style="font-style:normal;font-variant:normal;font-weight:800;font-stretch:normal;line-height:1.25;font-family:'JetBrains Mono';-inkscape-font-specification:'JetBrains Mono Ultra-Bold';letter-spacing:0px;word-spacing:0px;baseline-shift:baseline;fill:#ffffff;fill-opacity:1;stroke:#000000;stroke-width:0.30000001;stroke-miterlimit:4;stroke-dasharray:none;stroke-opacity:1"
       id="text819">
      <path
         d="m 3.9955761,0.62435745 q 0.672,0 1.224,0.192 0.552,0.19200005 0.948,0.55200005 0.396,0.348 0.612,0.852 0.216,0.492 0.216,1.104 h -1.8 q 0,-0.504 -0.324,-0.792 -0.324,-0.288 -0.876,-0.288 -0.564,0 -0.9,0.288 -0.324,0.288 -0.324,0.792 v 3.48 q 0,0.504 0.312,0.792 0.324,0.288 0.9,0.288 0.564,0 0.888,-0.3 0.324,-0.3 0.324,-0.78 h 1.8 q 0,0.612 -0.216,1.116 -0.216,0.492 -0.612,0.852 -0.396,0.348 -0.948,0.54 -0.552,0.192 -1.236,0.192 -0.684,0 -1.236,-0.192 -0.552,-0.192 -0.948,-0.54 -0.396,-0.36 -0.612,-0.852 -0.21600001,-0.504 -0.21600001,-1.116 v -3.48 q 0,-0.612 0.21600001,-1.104 0.216,-0.504 0.612,-0.852 0.396,-0.36 0.948,-0.55200005 0.564,-0.192 1.248,-0.192 z"
         id="path815"
         inkscape:connector-curvature="0" />
    </g>
  </g>
</svg>
